   <svg width="200" height="200" viewBox="0 0 200 200" xmlns="http://www.w3.org/2000/svg">
    <g transform="translate(50, 50)">
      <circle cx="50" cy="50" r="40" stroke="blue" stroke-width="5" fill="none"/>
      <path d="M50 10 L55 20 L65 20 L70 10 L80 10 L85 20 L95 20 L100 10 L110 10 L115 20 L125 20 L130 10 L140 10 L145 20 L155 20 L160 10 L170 10 L175 20 L185 20 L190 10 L200 10 L195 20 L185 20 L180 30 L185 40 L180 50 L185 60 L180 70 L185 80 L180 90 L185 100 L180 110 L185 120 L180 130 L185 140 L180 150 L185 160 L180 170 L185 180 L180 190 L185 200 L175 200 L170 190 L160 190 L155 200 L145 200 L140 190 L130 190 L125 200 L115 200 L110 190 L100 190 L95 200 L85 200 L80 190 L70 190 L65 200 L55 200 L50 190 L40 190 L35 200 L25 200 L20 190 L10 190 L5 200 L-5 200 L-10 190 L-20 190 L-25 200 L-35 200 L-40 190 L-50 190 L-55 200 L-65 200 L-70 190 L-80 190 L-85 200 L-95 200 L-100 190 L-110 190 L-115 200 L-125 200 L-130 190 L-140 190 L-145 200 L-155 200 L-160 190 L-170 190 L-175 200 L-185 200 L-190 190 L-200 190 L-195 180 L-185 180 L-180 170 L-185 160 L-180 150 L-185 140 L-180 130 L-185 120 L-180 110 L-185 100 L-180 90 L-185 80 L-180 70 L-185 60 L-180 50 L-185 40 L-180 30 L-185 20 L-195 20 L-200 10 L-190 10 L-185 0 L-175 0 L-170 10 L-160 10 L-155 0 L-145 0 L-140 10 L-130 10 L-125 0 L-115 0 L-110 10 L-100 10 L-95 0 L-85 0 L-80 10 L-70 10 L-65 0 L-55 0 L-50 10 Z" fill="blue"/>
    </g>
    <g transform="translate(100, 100)">
      <circle cx="50" cy="50" r="40" stroke="blue" stroke-width="5" fill="none"/>
      <path d="M50 10 L55 20 L65 20 L70 10 L80 10 L85 20 L95 20 L100 10 L110 10 L115 20 L125 20 L130 10 L140 10 L145 20 L155 20 L160 10 L170 10 L175 20 L185 20 L190 10 L200 10 L195 20 L185 20 L180 30 L185 40 L180 50 L185 60 L180 70 L185 80 L180 90 L185 100 L180 110 L185 120 L180 130 L185 140 L180 150 L185 160 L180 170 L185 180 L180 190 L185 200 L175 200 L170 190 L160 190 L155 200 L145 200 L140 190 L130 190 L125 200 L115 200 L110 190 L100 190 L95 200 L85 200 L80 190 L70 190 L65 200 L55 200 L50 190 L40 190 L35 200 L25 200 L20 190 L10 190 L5 200 L-5 200 L-10 190 L-20 190 L-25 200 L-35 200 L-40 190 L-50 190 L-55 200 L-65 200 L-70 190 L-80 190 L-85 200 L-95 200 L-100 190 L-110 190 L-115 200 L-125 200 L-130 190 L-140 190 L-145 200 L-155 200 L-160 190 L-170 190 L-175 200 L-185 200 L-190 190 L-200 190 L-195 180 L-185 180 L-180 170 L-185 160 L-180 150 L-185 140 L-180 130 L-185 120 L-180 110 L-185 100 L-180 90 L-185 80 L-180 70 L-185 60 L-180 50 L-185 40 L-180 30 L-185 20 L-195 20 L-200 10 L-190 10 L-185 0 L-175 0 L-170 10 L-160 10 L-155 0 L-145 0 L-140 10 L-130 10 L-125 0 L-115 0 L-110 10 L-100 10 L-95 0 L-85 0 L-80 10 L-70 10 L-65 0 L-55 0 L-50 10 Z" fill="blue"/>
    </g>
  </svg>